<svg id="svg" version="1.1" xmlns="http://www.w3.org/2000/svg" xmlns:xlink="http://www.w3.org/1999/xlink" width="400" height="400" viewBox="0, 0, 400,400"><g id="svgg"><path id="path0" d="M0.000 200.000 L 0.000 400.000 200.000 400.000 L 400.000 400.000 400.000 200.000 L 400.000 0.000 200.000 0.000 L 0.000 0.000 0.000 200.000 M207.813 50.890 C 244.982 75.768,266.422 124.525,265.545 182.180 L 265.360 194.336 268.520 197.783 C 283.157 213.748,289.842 232.055,289.843 256.183 L 289.844 262.953 288.770 262.733 C 281.776 261.305,235.139 252.344,234.699 252.344 C 234.351 252.344,233.921 252.967,233.654 253.858 C 232.475 257.793,227.474 263.648,222.432 266.995 C 203.569 279.515,172.258 272.245,165.717 253.827 C 164.886 251.488,168.357 251.079,136.917 257.228 C 122.094 260.128,109.899 262.500,109.816 262.500 C 109.404 262.500,110.165 244.277,110.722 240.820 C 113.509 223.529,119.699 210.458,131.057 197.882 L 134.393 194.188 133.979 185.418 C 131.098 124.447,154.879 73.464,198.817 46.412 C 199.883 45.756,200.893 46.259,207.813 50.890 M197.461 67.257 C 162.863 91.049,143.854 137.411,147.623 188.808 L 148.077 194.999 143.863 199.363 C 132.434 211.195,125.000 229.005,125.000 244.551 C 125.000 245.989,121.885 246.448,149.023 241.016 C 176.106 235.595,172.656 236.204,172.656 236.845 C 172.656 237.129,173.424 238.931,174.363 240.849 C 185.596 263.803,216.825 262.834,226.609 239.228 C 227.353 237.435,227.642 237.098,228.304 237.254 C 233.259 238.425,274.744 246.480,274.919 246.305 C 275.302 245.921,274.274 236.060,273.410 231.836 C 270.718 218.674,264.157 206.810,254.559 197.750 L 252.383 195.696 252.751 192.672 C 258.678 144.105,236.418 87.935,203.104 67.396 C 199.675 65.282,200.311 65.297,197.461 67.257 M207.227 117.789 C 231.426 124.437,234.801 157.713,212.419 168.986 C 188.857 180.853,163.707 156.547,174.788 132.617 C 180.366 120.571,194.249 114.224,207.227 117.789 M194.721 129.196 C 186.112 132.271,181.768 140.528,184.365 148.885 C 189.716 166.102,215.191 162.164,215.230 144.114 C 215.252 133.744,204.298 125.776,194.721 129.196 M205.726 284.860 C 218.969 289.518,224.409 305.651,218.509 322.773 C 215.273 332.165,201.488 355.891,199.289 355.855 C 199.143 355.853,197.506 353.524,195.651 350.679 C 185.711 335.438,179.598 321.765,178.555 312.442 C 176.576 294.756,191.318 279.791,205.726 284.860 M198.023 297.033 C 190.918 298.888,187.711 308.396,190.962 317.969 C 192.318 321.963,195.798 329.406,198.331 333.729 L 199.898 336.403 201.283 334.120 C 206.188 326.036,209.743 317.102,210.051 312.088 C 210.624 302.755,204.667 295.299,198.023 297.033 " stroke="none" fill="#fbfbfc" fill-rule="evenodd"></path><path id="path1" d="M198.817 46.412 C 154.879 73.464,131.098 124.447,133.979 185.418 L 134.393 194.188 131.057 197.882 C 119.699 210.458,113.509 223.529,110.722 240.820 C 110.165 244.277,109.404 262.500,109.816 262.500 C 109.899 262.500,122.094 260.128,136.917 257.228 C 168.357 251.079,164.886 251.488,165.717 253.827 C 172.258 272.245,203.569 279.515,222.432 266.995 C 227.474 263.648,232.475 257.793,233.654 253.858 C 233.921 252.967,234.351 252.344,234.699 252.344 C 235.139 252.344,281.776 261.305,288.770 262.733 L 289.844 262.953 289.843 256.183 C 289.842 232.055,283.157 213.748,268.520 197.783 L 265.360 194.336 265.545 182.180 C 266.215 138.131,255.282 102.479,232.264 73.650 C 222.488 61.407,201.812 44.568,198.817 46.412 M203.104 67.396 C 236.418 87.935,258.678 144.105,252.751 192.672 L 252.383 195.696 254.559 197.750 C 264.157 206.810,270.718 218.674,273.410 231.836 C 274.274 236.060,275.302 245.921,274.919 246.305 C 274.744 246.480,233.259 238.425,228.304 237.254 C 227.642 237.098,227.353 237.435,226.609 239.228 C 216.825 262.834,185.596 263.803,174.363 240.849 C 173.424 238.931,172.656 237.129,172.656 236.845 C 172.656 236.204,176.106 235.595,149.023 241.016 C 121.885 246.448,125.000 245.989,125.000 244.551 C 125.000 229.005,132.434 211.195,143.863 199.363 L 148.077 194.999 147.623 188.808 C 143.854 137.411,162.863 91.049,197.461 67.257 C 200.311 65.297,199.675 65.282,203.104 67.396 M194.141 117.356 C 167.701 122.947,164.201 159.914,189.165 169.909 C 210.382 178.405,231.998 159.827,226.757 137.601 C 223.476 123.682,208.419 114.336,194.141 117.356 M206.038 129.878 C 217.722 135.477,218.393 151.892,207.182 157.904 C 193.094 165.459,178.243 151.002,185.504 136.799 C 189.140 129.686,198.827 126.421,206.038 129.878 M197.309 284.058 C 186.013 285.332,177.041 298.910,178.555 312.442 C 179.598 321.765,185.711 335.438,195.651 350.679 C 197.506 353.524,199.143 355.853,199.289 355.855 C 201.488 355.891,215.273 332.165,218.509 322.773 C 225.803 301.606,215.095 282.052,197.309 284.058 M203.553 297.690 C 212.835 302.329,211.950 316.538,201.283 334.120 L 199.898 336.403 198.331 333.729 C 190.840 320.942,188.111 310.881,190.498 304.846 C 193.213 297.982,198.423 295.126,203.553 297.690 " stroke="none" fill="#bf7c8e" fill-rule="evenodd"></path></g></svg>